<svg xmlns="http://www.w3.org/2000/svg" width="15.406" height="17" viewBox="0 0 15.406 17">
  <g id="album-icon" transform="translate(-24)">
    <g id="XMLID_57_" transform="translate(24)">
      <path id="XMLID_1382_" d="M178.3,110h-2.49a.332.332,0,1,0,0,.664h2.158v4.129L176.3,113.12a.332.332,0,0,0-.47,0l-2.325,2.325-.323-.323a.332.332,0,0,0-.47,0l-2.045,2.045v-6.5h2.158a.332.332,0,1,0,0-.664h-2.49a.332.332,0,0,0-.332.332v9.031a.332.332,0,0,0,.332.332H178.3a.332.332,0,0,0,.332-.332v-9.031A.332.332,0,0,0,178.3,110Zm-7.637,8.106,2.28-2.28,3.2,3.2h-5.485Zm6.424.925-3.117-3.117,2.09-2.09,1.908,1.908v3.3Z" transform="translate(-165.152 -106.348)" fill="#fff"/>
      <path id="XMLID_1409_" d="M38.41,0H26.457a1,1,0,0,0-1,1v.8h-.2a1.262,1.262,0,1,0,0,2.523h.2V5.423h-.2a1.262,1.262,0,0,0,0,2.523h.2V9.053h-.2a1.262,1.262,0,1,0,0,2.523h.2v1.107h-.2a1.262,1.262,0,1,0,0,2.523h.2V16a1,1,0,0,0,1,1H38.41a1,1,0,0,0,1-1V1A1,1,0,0,0,38.41,0ZM26.125,1a.332.332,0,0,1,.332-.332h.465v1.28a1.254,1.254,0,0,0-.6-.151h-.2Zm-.863,2.656a.6.6,0,0,1,0-1.2h.2v1.2Zm.863-1.2h.2a.6.6,0,0,1,.6.6V5.574a1.254,1.254,0,0,0-.6-.151h-.2Zm-.863,4.826a.6.6,0,0,1,0-1.2h.2v1.2Zm.863-1.2h.2a.6.6,0,0,1,.6.6V9.2a1.254,1.254,0,0,0-.6-.151h-.2Zm-.863,4.826a.6.6,0,1,1,0-1.2h.2v1.2Zm.863-1.2h.2a.6.6,0,0,1,.6.6v2.519a1.254,1.254,0,0,0-.6-.151h-.2Zm-.863,4.826a.6.6,0,1,1,0-1.2h.2v1.2ZM26.125,16V13.348h.2a.6.6,0,0,1,.6.6v2.391h-.465A.332.332,0,0,1,26.125,16Zm12.617,0a.332.332,0,0,1-.332.332H27.586V.664H38.41A.332.332,0,0,1,38.742,1Z" transform="translate(-24)" fill="#fff"/>
      <path id="XMLID_1436_" d="M222.5,161.129A1.129,1.129,0,1,0,223.629,160,1.13,1.13,0,0,0,222.5,161.129Zm1.594,0a.465.465,0,1,1-.465-.465A.465.465,0,0,1,224.094,161.129Z" transform="translate(-215.909 -154.688)" fill="#fff"/>
      <path id="XMLID_1437_" d="M290.332,110.664a.332.332,0,1,0-.235-.1A.335.335,0,0,0,290.332,110.664Z" transform="translate(-281.168 -106.348)" fill="#fff"/>
    </g>
  </g>
</svg>
