<svg id="album_icon" xmlns="http://www.w3.org/2000/svg" width="24.677" height="25.867" viewBox="0 0 24.677 25.867">
  <g id="Group_65055" data-name="Group 65055">
    <g id="Group_65054" data-name="Group 65054">
      <path id="Path_43867" data-name="Path 43867" d="M68.468,0H50.53A2.218,2.218,0,0,0,48.6,1.181H67.346a2.307,2.307,0,0,1,2.242,2.363V23.3a2.379,2.379,0,0,0,1.121-2.034V2.363A2.307,2.307,0,0,0,68.468,0Z" transform="translate(-46.032)" fill="#ed702d"/>
      <path id="Path_43868" data-name="Path 43868" d="M20.181,42.667H2.242A2.306,2.306,0,0,0,0,45.028v18.89A2.306,2.306,0,0,0,2.242,66.28H20.181a2.306,2.306,0,0,0,2.242-2.361V45.028A2.306,2.306,0,0,0,20.181,42.667ZM11.212,63.919a9.458,9.458,0,0,1,0-18.891,9.458,9.458,0,0,1,0,18.891Z" transform="translate(0 -40.413)" fill="#ed702d"/>
      <path id="Path_43869" data-name="Path 43869" d="M152.714,192a3.381,3.381,0,1,0,3.381,3.381A3.385,3.385,0,0,0,152.714,192Zm0,4.508a1.127,1.127,0,1,1,1.127-1.127A1.129,1.129,0,0,1,152.714,196.508Z" transform="translate(-141.495 -181.253)" fill="#ed702d"/>
      <path id="Path_43870" data-name="Path 43870" d="M124.645,129.126a.564.564,0,0,0,0-1.127h0a6.717,6.717,0,0,0-4.781,1.981.563.563,0,1,0,.8.8,5.6,5.6,0,0,1,3.984-1.65Z" transform="translate(-113.412 -120.905)" fill="#ed702d"/>
    </g>
  </g>
</svg>
