<svg xmlns="http://www.w3.org/2000/svg" width="235" height="52" viewBox="0 0 235 52">
  <g id="anantham-logo" transform="translate(-58 -94)">
    <g id="drone-logo" transform="translate(0 -1)">
      <text id="Anantham" transform="translate(113 127)" fill="#fff" font-size="30" font-family="OpenSans-Bold, Open Sans" font-weight="700"><tspan x="0" y="0">ANANTHAM</tspan></text>
      <g id="_001-camera-drone" data-name="001-camera-drone" transform="translate(55 96)">
        <path id="Path_7" data-name="Path 7" d="M16.776,12l.142.119c0-.051.012-.1.012-.154a4.966,4.966,0,1,0-4.966,4.966c.052,0,.1-.011.154-.012L12,16.776A3.391,3.391,0,0,1,16.776,12Z" transform="translate(-0.69 -0.69)" fill="#fff"/>
        <path id="Path_8" data-name="Path 8" d="M11.276,19.552a8.2,8.2,0,0,0,2.575-.418l-1.171-1.406A6.611,6.611,0,1,1,17.9,11.276a6.588,6.588,0,0,1-.169,1.4l1.414,1.178a8.277,8.277,0,1,0-7.865,5.7Z" transform="translate(0 0)" fill="#fff"/>
        <path id="Path_9" data-name="Path 9" d="M49.812,16.918c.051,0,.1.013.153.013A4.966,4.966,0,1,0,45,11.966c0,.052.011.1.012.154L45.155,12a3.39,3.39,0,0,1,4.775,4.775Z" transform="translate(-7.241 -0.69)" fill="#fff"/>
        <path id="Path_10" data-name="Path 10" d="M17.729,47.872a6.713,6.713,0,1,1-5.049-5.049l1.171-1.405A8.3,8.3,0,1,0,19.134,46.7Z" transform="translate(0 -6.552)" fill="#fff"/>
        <path id="Path_11" data-name="Path 11" d="M42.823,12.679a6.627,6.627,0,1,1,5.04,5.06L46.7,19.134a8.3,8.3,0,1,0-5.282-5.283Z" transform="translate(-6.552)" fill="#fff"/>
        <path id="Path_12" data-name="Path 12" d="M47.327,50.722a3.382,3.382,0,0,1-2.172-.792l-.142-.118c0,.052-.012.1-.012.154A4.966,4.966,0,1,0,49.966,45c-.052,0-.1.011-.154.012l.118.142a3.4,3.4,0,0,1-2.6,5.567Z" transform="translate(-7.241 -7.241)" fill="#fff"/>
        <path id="Path_13" data-name="Path 13" d="M43.223,43.223a1.728,1.728,0,0,0,.106-2.339L38.671,35.3a9.972,9.972,0,0,1,0-12.766l4.658-5.59a1.736,1.736,0,0,0-2.445-2.445L35.3,19.153a9.972,9.972,0,0,1-12.766,0l-5.59-4.658a1.736,1.736,0,0,0-2.445,2.445l4.658,5.59a9.972,9.972,0,0,1,0,12.766l-4.658,5.59a1.736,1.736,0,0,0,2.445,2.445l5.59-4.658a9.972,9.972,0,0,1,12.766,0l5.59,4.658A1.728,1.728,0,0,0,43.223,43.223ZM28.912,33.05a4.138,4.138,0,1,1,4.138-4.138A4.143,4.143,0,0,1,28.912,33.05Z" transform="translate(-1.912 -1.912)" fill="#fff"/>
        <path id="Path_14" data-name="Path 14" d="M49.276,41a8.2,8.2,0,0,0-2.575.418l1.171,1.405a6.713,6.713,0,1,1-5.049,5.049L41.417,46.7A8.272,8.272,0,1,0,49.276,41Z" transform="translate(-6.552 -6.552)" fill="#fff"/>
        <circle id="Ellipse_1" data-name="Ellipse 1" cx="2" cy="2" r="2" transform="translate(25 25)" fill="#fff"/>
        <path id="Path_15" data-name="Path 15" d="M12.119,45.012c-.052,0-.1-.012-.154-.012a4.966,4.966,0,1,0,4.966,4.966c0-.052-.011-.1-.012-.154l-.142.118A3.39,3.39,0,0,1,12,45.155Z" transform="translate(-0.69 -7.241)" fill="#fff"/>
      </g>
    </g>
    <text id="DRONE_SERVICE_PROVIDER" data-name="DRONE SERVICE PROVIDER" transform="translate(113 142)" fill="#fff" font-size="12" font-family="OpenSans-Regular, Open Sans"><tspan x="0" y="0">DRONE SERVICE PROVIDER</tspan></text>
  </g>
</svg>
