<svg id="article_white" xmlns="http://www.w3.org/2000/svg" width="17" height="17" viewBox="0 0 17 17">
  <path id="Path_43899" data-name="Path 43899" d="M16.469,0H3.719a.531.531,0,0,0-.531.531V3.188H.531A.531.531,0,0,0,0,3.719V14.875A2.127,2.127,0,0,0,2.125,17h12.75A2.124,2.124,0,0,0,17,14.875V.531A.531.531,0,0,0,16.469,0ZM2.125,15.937a1.064,1.064,0,0,1-1.062-1.062V4.25H12.75c0,11.4,0,10.638,0,10.722a2.113,2.113,0,0,0,.283.965Zm13.812-1.062a1.063,1.063,0,0,1-2.125,0V3.719a.531.531,0,0,0-.531-.531H4.25V1.063H15.937Z" fill="#fff"/>
  <path id="Path_43900" data-name="Path 43900" d="M65.563,152H56.531a.531.531,0,0,0-.531.531v3.453a.531.531,0,0,0,.531.531h9.031a.531.531,0,0,0,.531-.531v-3.453A.531.531,0,0,0,65.563,152Zm-.531,3.453H57.063v-2.391h7.969Z" transform="translate(-54.141 -146.953)" fill="#fff"/>
  <path id="Path_43901" data-name="Path 43901" d="M60.25,312H56.531a.531.531,0,0,0-.531.531v3.719a.531.531,0,0,0,.531.531H60.25a.531.531,0,0,0,.531-.531v-3.719A.531.531,0,0,0,60.25,312Zm-.531,3.719H57.063v-2.656h2.656Z" transform="translate(-54.141 -301.641)" fill="#fff"/>
  <path id="Path_43902" data-name="Path 43902" d="M227.984,312h-3.453a.531.531,0,0,0,0,1.063h3.453a.531.531,0,1,0,0-1.062Z" transform="translate(-216.563 -301.641)" fill="#fff"/>
  <path id="Path_43903" data-name="Path 43903" d="M227.984,368h-3.453a.531.531,0,0,0,0,1.063h3.453a.531.531,0,1,0,0-1.062Z" transform="translate(-216.563 -355.781)" fill="#fff"/>
  <path id="Path_43904" data-name="Path 43904" d="M227.984,424h-3.453a.531.531,0,0,0,0,1.063h3.453a.531.531,0,1,0,0-1.062Z" transform="translate(-216.563 -409.922)" fill="#fff"/>
</svg>
