<svg xmlns="http://www.w3.org/2000/svg" width="23.539" height="23.544" viewBox="0 0 23.539 23.544">
  <g id="article_icon" transform="translate(-0.063)">
    <path id="Path_43884" data-name="Path 43884" d="M127.4,0V21.773a1.765,1.765,0,1,1-3.531,0V4.266a.735.735,0,0,0-.736-.736h-14.27V0Z" transform="translate(-103.798)" fill="#ed702d"/>
    <path id="Path_43885" data-name="Path 43885" d="M19.078,127.262a3.241,3.241,0,0,1-.275-.563c-.292-.788-.2.274-.2-17.9H.063v16.771a1.768,1.768,0,0,0,1.765,1.765c18.641,0,17.318.037,17.249-.074ZM8.816,125.154a.735.735,0,0,1-.736.736H2.245a.735.735,0,0,1-.736-.736v-5.835a.735.735,0,0,1,.736-.736H8.081a.735.735,0,0,1,.736.736Zm7.6.736H11a.736.736,0,1,1,0-1.471h5.418a.736.736,0,1,1,0,1.471Zm0-2.918H11a.736.736,0,1,1,0-1.471h5.418a.736.736,0,1,1,0,1.471Zm0-2.918H11a.736.736,0,1,1,0-1.471h5.418a.736.736,0,1,1,0,1.471Zm.736-3.654a.735.735,0,0,1-.736.736H2.245a.735.735,0,0,1-.736-.736v-5.418a.735.735,0,0,1,.736-.736H16.417a.735.735,0,0,1,.736.736Z" transform="translate(0 -103.798)" fill="#ed702d"/>
    <path id="Path_43886" data-name="Path 43886" d="M63.533,172.27h12.7v3.947h-12.7Z" transform="translate(-60.552 -164.35)" fill="#ed702d"/>
    <path id="Path_43887" data-name="Path 43887" d="M63.533,353.6H67.9v4.364H63.533Z" transform="translate(-60.552 -337.344)" fill="#ed702d"/>
  </g>
</svg>
