<svg xmlns="http://www.w3.org/2000/svg" width="33.89" height="27.599" viewBox="0 0 33.89 27.599">
  <g id="book_icon" transform="translate(0 -47.336)">
    <path id="Path_43871" data-name="Path 43871" d="M32.928,52.276c-.064,0-1.373-.046-3.294,0V48.333a1,1,0,0,0-1.08-.993c-3.831.32-8.705,2.013-11.609,5.1-2.9-3.088-7.778-4.78-11.609-5.1a1,1,0,0,0-1.08.993v4.046c-1.092-.041-2.124-.07-3.23-.1a1,1,0,0,0-1.026,1V71.425a1,1,0,0,0,.93.995c3.965.267,10.607.3,15.624,2.437a1,1,0,0,0,.782,0c5.017-2.14,11.658-2.17,15.624-2.437a1,1,0,0,0,.93-.995V53.272a1,1,0,0,0-.962-1ZM27.64,49.454V66.538a21.149,21.149,0,0,0-9.7,4.924V54.329C20.123,51.608,24.253,49.967,27.64,49.454Zm-21.391,0c3.387.513,7.518,2.153,9.7,4.875V71.462a21.149,21.149,0,0,0-9.7-4.924ZM1.994,70.487V54.3c.714.021,1.477.045,2.262.075V67.35a1,1,0,0,0,.813.98,19.94,19.94,0,0,1,7.994,3.351,67.521,67.521,0,0,0-11.07-1.194Zm29.9,0a67.522,67.522,0,0,0-11.07,1.194,19.941,19.941,0,0,1,7.994-3.351,1,1,0,0,0,.813-.98V54.267c.917-.021,1.7-.021,2.262-.016V70.487Z" transform="translate(0 0)" fill="#ed702d"/>
    <path id="Path_43872" data-name="Path 43872" d="M135.269,166.714a9.284,9.284,0,0,0-3.523-1.438,1,1,0,1,0-.332,1.966,7.268,7.268,0,0,1,2.716,1.108,1,1,0,0,0,1.14-1.636Z" transform="translate(-121.906 -110.089)" fill="#ed702d"/>
    <path id="Path_43873" data-name="Path 43873" d="M135.17,251.458a10.651,10.651,0,0,0-3.424-1.419,1,1,0,1,0-.332,1.966,8.9,8.9,0,0,1,2.717,1.154,1,1,0,1,0,1.039-1.7Z" transform="translate(-121.906 -189.22)" fill="#ed702d"/>
    <path id="Path_43874" data-name="Path 43874" d="M304.033,168.349a7.268,7.268,0,0,1,2.716-1.108,1,1,0,1,0-.332-1.966,9.283,9.283,0,0,0-3.523,1.438,1,1,0,1,0,1.139,1.636Z" transform="translate(-282.367 -110.088)" fill="#ed702d"/>
    <path id="Path_43875" data-name="Path 43875" d="M307.112,250.039a10.648,10.648,0,0,0-3.424,1.419,1,1,0,1,0,1.039,1.7A8.9,8.9,0,0,1,307.444,252a1,1,0,1,0-.332-1.966Z" transform="translate(-283.063 -189.22)" fill="#ed702d"/>
  </g>
</svg>
