<svg xmlns="http://www.w3.org/2000/svg" width="25" height="20.36" viewBox="0 0 25 20.36">
  <g id="book_icon_white" transform="translate(0 -47.337)">
    <path id="Path_43871" data-name="Path 43871" d="M24.29,50.98c-.047,0-1.013-.034-2.43,0V48.072a.738.738,0,0,0-.8-.733A14,14,0,0,0,12.5,51.1a13.991,13.991,0,0,0-8.564-3.762.738.738,0,0,0-.8.733v2.985c-.806-.03-1.567-.052-2.383-.074A.738.738,0,0,0,0,51.72V65.106a.738.738,0,0,0,.686.734c2.925.2,7.825.221,11.526,1.8a.738.738,0,0,0,.577,0c3.7-1.579,8.6-1.6,11.526-1.8A.738.738,0,0,0,25,65.106V51.715a.738.738,0,0,0-.71-.738Zm-3.9-2.082V61.5a15.6,15.6,0,0,0-7.156,3.632V52.495C14.844,50.488,17.891,49.277,20.389,48.9Zm-15.78,0c2.5.378,5.546,1.588,7.156,3.6V65.133A15.6,15.6,0,0,0,4.61,61.5ZM1.471,64.414V52.473c.527.015,1.09.033,1.669.055V62.1a.738.738,0,0,0,.6.723,14.709,14.709,0,0,1,5.9,2.472,49.809,49.809,0,0,0-8.166-.881Zm22.057,0a49.811,49.811,0,0,0-8.166.881,14.71,14.71,0,0,1,5.9-2.472.738.738,0,0,0,.6-.723V52.449c.676-.015,1.254-.015,1.669-.012V64.414Z" transform="translate(0)" fill="#fff"/>
    <path id="Path_43872" data-name="Path 43872" d="M134.019,166.329a6.849,6.849,0,0,0-2.6-1.061.738.738,0,1,0-.245,1.45,5.362,5.362,0,0,1,2,.817.738.738,0,0,0,.841-1.207Z" transform="translate(-124.161 -112.14)" fill="#fff"/>
    <path id="Path_43873" data-name="Path 43873" d="M133.946,251.078a7.858,7.858,0,0,0-2.526-1.047.738.738,0,1,0-.245,1.45,6.565,6.565,0,0,1,2,.851.738.738,0,1,0,.766-1.254Z" transform="translate(-124.161 -192.749)" fill="#fff"/>
    <path id="Path_43874" data-name="Path 43874" d="M303.6,167.535a5.361,5.361,0,0,1,2-.817.738.738,0,1,0-.245-1.45,6.848,6.848,0,0,0-2.6,1.061.738.738,0,1,0,.84,1.207Z" transform="translate(-287.621 -112.139)" fill="#fff"/>
    <path id="Path_43875" data-name="Path 43875" d="M306.068,250.03a7.855,7.855,0,0,0-2.526,1.047.738.738,0,1,0,.766,1.254,6.564,6.564,0,0,1,2-.854.738.738,0,1,0-.245-1.45Z" transform="translate(-288.328 -192.747)" fill="#fff"/>
  </g>
</svg>
