<svg xmlns="http://www.w3.org/2000/svg" width="28.589" height="25.223" viewBox="0 0 28.589 25.223">
  <g id="food_icon" transform="translate(0 -3.002)">
    <g id="Group_65036" data-name="Group 65036" transform="translate(0 3.002)">
      <path id="Path_43855" data-name="Path 43855" d="M33.175,40.4c.3.3,1.185-.1,1.486-.4l.5-.5c.3-.3.7-1.186.4-1.487L28.1,30.947,26.154,33Z" transform="translate(-11.492 -15.281)" fill="#fff"/>
      <path id="Path_43856" data-name="Path 43856" d="M9.328,12.522c.969-1.686.457-3.729-1.07-5.256-1.8-1.8-5.7-3.568-7.5-1.764s-.04,5.7,1.764,7.5a4.352,4.352,0,0,0,5.16,1.123L11.21,17.85l1.865-1.77Z" transform="translate(0 -3.769)" fill="#fff"/>
      <path id="Path_43857" data-name="Path 43857" d="M21.336,11.7,6.547,25.739c-.3.3.1,1.186.4,1.487l.5.5a2.027,2.027,0,0,0,1.167.5.445.445,0,0,0,.32-.107L23.013,13.273a3.461,3.461,0,0,0,1.223.34,4.593,4.593,0,0,0,3.6-1.481c3.552-3.551,4.189-4.333,3.1-5.7l-4.193,4.018a.515.515,0,0,1-.359.151.433.433,0,0,1-.311-.127l-.112-.112a.436.436,0,0,1-.127-.311.523.523,0,0,1,.155-.362l3.806-4.465-.272-.272-.459-.461L24.582,8.313a.5.5,0,0,1-.346.14.433.433,0,0,1-.311-.127l-.112-.112a.436.436,0,0,1-.127-.311.523.523,0,0,1,.155-.362l4-4.172c-1.29-.937-2.074-.156-5.5,3.27A4.474,4.474,0,0,0,20.9,10.565,3.553,3.553,0,0,0,21.336,11.7Z" transform="translate(-2.83 -3.002)" fill="#fff"/>
    </g>
  </g>
</svg>
