<svg xmlns="http://www.w3.org/2000/svg" width="16.5" height="11.602" viewBox="0 0 16.5 11.602">
  <g id="friends-icon" transform="translate(0 -76)">
    <g id="Group_65058" data-name="Group 65058" transform="translate(0 81.156)">
      <g id="Group_65057" data-name="Group 65057">
        <path id="Path_43889" data-name="Path 43889" d="M15.855,236H.645a.645.645,0,0,0,0,1.289H15.855a.645.645,0,1,0,0-1.289Z" transform="translate(0 -236)" fill="#fff"/>
      </g>
    </g>
    <g id="Group_65060" data-name="Group 65060" transform="translate(0 76)">
      <g id="Group_65059" data-name="Group 65059">
        <path id="Path_43890" data-name="Path 43890" d="M15.855,76H.645a.645.645,0,0,0,0,1.289H15.855a.645.645,0,1,0,0-1.289Z" transform="translate(0 -76)" fill="#fff"/>
      </g>
    </g>
    <g id="Group_65062" data-name="Group 65062" transform="translate(0 86.313)">
      <g id="Group_65061" data-name="Group 65061">
        <path id="Path_43891" data-name="Path 43891" d="M15.855,396H.645a.645.645,0,0,0,0,1.289H15.855a.645.645,0,1,0,0-1.289Z" transform="translate(0 -396)" fill="#fff"/>
      </g>
    </g>
  </g>
</svg>
