<svg xmlns="http://www.w3.org/2000/svg" width="22.05" height="29.47" viewBox="0 0 22.05 29.47">
  <path id="Icon_open-microphone" data-name="Icon open-microphone" d="M10.683-.138a3.669,3.669,0,0,0-.477.11A3.668,3.668,0,0,0,7.345,3.64v7.336a3.668,3.668,0,0,0,7.337,0V3.64a3.668,3.668,0,0,0-4-3.778ZM1.292,7.308A1.834,1.834,0,0,0,.044,9.142v1.834A11.02,11.02,0,0,0,9.216,21.76v3.888H7.381a3.679,3.679,0,0,0-3.668,3.668H18.423a3.679,3.679,0,0,0-3.668-3.668H12.921V21.76a10.991,10.991,0,0,0,9.171-10.784V9.142a1.834,1.834,0,0,0-3.668,0v1.834a7.337,7.337,0,0,1-14.674,0V9.142A1.834,1.834,0,0,0,1.585,7.308a1.835,1.835,0,0,0-.22,0Z" transform="translate(-0.042 0.154)" fill="#fff"/>
</svg>
