<svg id="icon_home" xmlns="http://www.w3.org/2000/svg" width="17" height="16.158" viewBox="0 0 17 16.158">
  <g id="home" transform="translate(0 -12.676)">
    <g id="Group_65087" data-name="Group 65087" transform="translate(0 12.676)">
      <path id="Path_43909" data-name="Path 43909" d="M16.715,19.854l-1.436-1.309V14.207a.5.5,0,0,0-.5-.5H11.322a.5.5,0,0,0-.5.5v.278L9.087,12.9a.868.868,0,0,0-1.174,0L.286,19.854A.872.872,0,0,0,.873,21.37H2.091v6.963a.5.5,0,0,0,.5.5H6.772a.5.5,0,0,0,.5-.5V24.106H9.729v4.228a.5.5,0,0,0,.5.5h4.181a.5.5,0,0,0,.5-.5V21.37h1.218a.872.872,0,0,0,.587-1.516Zm-2.305.516a.5.5,0,0,0-.5.5v6.963H10.729V23.606a.5.5,0,0,0-.5-.5H6.772a.5.5,0,0,0-.5.5v4.228H3.091V20.871a.5.5,0,0,0-.5-.5H1.2l7.3-6.649,2.485,2.264a.5.5,0,0,0,.837-.37v-.91h2.457v4.06a.5.5,0,0,0,.163.37L15.8,20.371Z" transform="translate(0 -12.676)" fill="#fff"/>
    </g>
  </g>
</svg>
