<svg xmlns="http://www.w3.org/2000/svg" width="250" height="45.809" viewBox="0 0 250 45.809">
  <g id="logo-main" transform="translate(3403.495 -87.62)">
    <path id="Path_43839" data-name="Path 43839" d="M289.761,119.42c.056.386.1.774.135,1.163h33.112V156.7H75.332V120.583H88.264c.037-.388.093-.777.16-1.163H74.17v38.438h250V119.42Z" transform="translate(-3477.665 -24.429)" fill="#ed702d"/>
    <path id="Path_43840" data-name="Path 43840" d="M127.42,87.708v7.268c-.494-.037-.888-.056-1.18-.056a4.262,4.262,0,0,0-3.013.783,4.431,4.431,0,0,0-.756,3.043v.99h4.949v6.57h-4.942v22.377H111.09V106.307h-3.76V99.73h3.843a21.151,21.151,0,0,1,.739-6.6,6.977,6.977,0,0,1,2.031-3.166,7.573,7.573,0,0,1,3.1-1.706,31.344,31.344,0,0,1,7.272-.632Q125.276,87.62,127.42,87.708Z" transform="translate(-3503.138)" fill="#ed702d"/>
    <path id="Path_43841" data-name="Path 43841" d="M182.31,165.774V136.906h10.482v5.8a11.12,11.12,0,0,1,3.6-5.065,9.091,9.091,0,0,1,5.489-1.576,8.5,8.5,0,0,1,1.372.109v11.467a17.764,17.764,0,0,0-2.608-.276,6.685,6.685,0,0,0-5.1,1.8q-1.694,1.8-1.713,5.941v10.674Z" transform="translate(-3560.738 -37.09)" fill="#ed702d"/>
    <path id="Path_43842" data-name="Path 43842" d="M263.91,87.74h11.528v8.284H263.91Zm0,41.036V99.822h11.528v28.954Z" transform="translate(-3623.301 -0.092)" fill="#ed702d"/>
    <path id="Path_43843" data-name="Path 43843" d="M343.379,153.9H321.444a5.686,5.686,0,0,0,1.606,4.022,5.853,5.853,0,0,0,4.24,1.439,4.3,4.3,0,0,0,4.172-2.36h11a9.377,9.377,0,0,1-1.674,3.676,14.5,14.5,0,0,1-5.542,4.281,19.809,19.809,0,0,1-8.479,1.674q-7.851,0-12.309-4.172A14.051,14.051,0,0,1,310,151.731a15.157,15.157,0,0,1,4.5-11.328q4.5-4.4,11.91-4.4a19.849,19.849,0,0,1,7.258,1.317,14.033,14.033,0,0,1,5.735,4.1,16.547,16.547,0,0,1,3.336,6.544A22.534,22.534,0,0,1,343.379,153.9Zm-21.843-5.872h10.4a5.029,5.029,0,0,0-1.481-3.709,5.442,5.442,0,0,0-3.85-1.365,4.867,4.867,0,0,0-3.514,1.289,5.733,5.733,0,0,0-1.562,3.785Z" transform="translate(-3658.662 -37.043)" fill="#ed702d"/>
    <path id="Path_43844" data-name="Path 43844" d="M446.07,165.667V136.715h10.591v4.5a13.588,13.588,0,0,1,4.4-4.061,11.455,11.455,0,0,1,5.447-1.235q5.331,0,8.247,2.951t2.921,8.767v18.03h-11.59V149.724a5.191,5.191,0,0,0-1.085-3.665,4.014,4.014,0,0,0-3.06-1.138,4.056,4.056,0,0,0-3.143,1.331,6.224,6.224,0,0,0-1.208,4.267v15.148Z" transform="translate(-3763.097 -36.983)" fill="#ed702d"/>
    <path id="Path_43845" data-name="Path 43845" d="M597.655,106.134V92.24H609.18v39.988H598.835v-3.906a11.094,11.094,0,0,1-3.709,3.6,10.618,10.618,0,0,1-5.213,1.162,12.311,12.311,0,0,1-9.427-3.964q-3.69-3.964-3.686-10.9a20.332,20.332,0,0,1,1.66-8.423,12.068,12.068,0,0,1,11.129-7.4,10.893,10.893,0,0,1,4.993,1.1A10.387,10.387,0,0,1,597.655,106.134Zm.413,11.752q0-3.443-1.331-5.024a4.355,4.355,0,0,0-3.5-1.581,4.48,4.48,0,0,0-3.607,1.651q-1.391,1.653-1.391,5.312,0,3.411,1.275,4.94a4.167,4.167,0,0,0,3.361,1.527,4.753,4.753,0,0,0,3.746-1.639q1.449-1.63,1.446-5.182Z" transform="translate(-3863.43 -3.549)" fill="#ed702d"/>
    <path id="Path_43846" data-name="Path 43846" d="M741.589,154.508a15.879,15.879,0,0,1-1.1,4.321,10.466,10.466,0,0,1-1.922,2.932,14.58,14.58,0,0,1-2.84,2.318,15.619,15.619,0,0,1-3.8,1.713,21.412,21.412,0,0,1-6.2.837q-7.881,0-12.306-4.24A14.521,14.521,0,0,1,709,151.406a14.7,14.7,0,0,1,4.444-11.1q4.444-4.267,12.285-4.267a19.45,19.45,0,0,1,8.781,1.755,12.148,12.148,0,0,1,5.213,4.726,14.29,14.29,0,0,1,1.676,5.294H729.762a4.553,4.553,0,0,0-1.3-2.99,4.057,4.057,0,0,0-2.9-1.043,4.455,4.455,0,0,0-3.609,1.688q-1.391,1.69-1.391,5.668,0,4.307,1.344,5.955a4.519,4.519,0,0,0,3.709,1.646,4.282,4.282,0,0,0,2.99-1.029,4.929,4.929,0,0,0,1.391-3.2Z" transform="translate(-3964.892 -37.075)" fill="#ed702d"/>
    <path id="Path_43847" data-name="Path 43847" d="M845.61,165.728V136.86h10.482v5.8a11.12,11.12,0,0,1,3.6-5.065,9.152,9.152,0,0,1,5.484-1.59,8.5,8.5,0,0,1,1.372.109V147.59a17.762,17.762,0,0,0-2.608-.276,6.685,6.685,0,0,0-5.1,1.8q-1.694,1.8-1.7,5.941v10.674Z" transform="translate(-4069.767 -37.044)" fill="#ed702d"/>
    <rect id="Rectangle_582" data-name="Rectangle 582" width="11.525" height="28.869" transform="translate(-3205.21 99.816)" fill="#ed702d"/>
    <rect id="Rectangle_583" data-name="Rectangle 583" width="11.525" height="8.259" transform="translate(-3205.21 87.648)" fill="#ed702d"/>
    <path id="Path_43848" data-name="Path 43848" d="M976.62,132.238V92.25h11.525v13.891a11.165,11.165,0,0,1,3.554-2.808,10.335,10.335,0,0,1,4.541-.93,11.775,11.775,0,0,1,9.126,4.157q3.718,4.157,3.709,11.42a19.549,19.549,0,0,1-1.565,8.065,11.389,11.389,0,0,1-4.6,5.3,13.035,13.035,0,0,1-6.792,1.8,10.554,10.554,0,0,1-5.517-1.307,10.96,10.96,0,0,1-3.649-3.7v4.1Zm16.136-20.945a4.4,4.4,0,0,0-3.5,1.627,7.384,7.384,0,0,0-1.391,4.882,10.232,10.232,0,0,0,.658,3.841,4.811,4.811,0,0,0,1.8,2.353,4.45,4.45,0,0,0,2.4.716,4.332,4.332,0,0,0,3.431-1.653A7.732,7.732,0,0,0,997.545,118a7.864,7.864,0,0,0-1.358-5.064A4.267,4.267,0,0,0,992.756,111.293Z" transform="translate(-4170.266 -3.557)" fill="#ed702d"/>
    <path id="Path_43849" data-name="Path 43849" d="M665.725,87.74V103a23.835,23.835,0,0,1,2.705,10.341,15.682,15.682,0,0,1-1.783,8,15.625,15.625,0,0,1-.927,2.241v5.2h11.764V87.74Z" transform="translate(-3931.712 -0.092)" fill="#ed702d"/>
    <path id="Path_43850" data-name="Path 43850" d="M985.857,114.319a5.109,5.109,0,0,1,2.531-4.473V87.76H976.94v41.032h11.449v-9.981a5.6,5.6,0,0,1-2.531-4.492Z" transform="translate(-4170.511 -0.108)" fill="#ed702d"/>
    <rect id="Rectangle_584" data-name="Rectangle 584" width="15.146" height="7.459" transform="translate(-3205.099 98.879)" fill="#ed702d"/>
    <rect id="Rectangle_585" data-name="Rectangle 585" width="11.525" height="3.713" transform="translate(-3359.391 98.892)" fill="#ed702d"/>
  </g>
</svg>
