<svg xmlns="http://www.w3.org/2000/svg" width="300" height="97.63" viewBox="0 0 300 97.63">
  <g id="Logo" transform="translate(3477.665)">
    <rect id="Rectangle_581" data-name="Rectangle 581" width="300" height="97.63" transform="translate(-3477.665)" fill="#df641e"/>
    <g id="Group_64994" data-name="Group 64994" transform="translate(-3459.467 21.453)">
      <path id="Path_43839" data-name="Path 43839" d="M301.493,119.42c.059.407.108.817.142,1.227h34.914v38.1H75.4v-38.1H89.031c.039-.41.1-.819.169-1.227H74.17v40.557h263.6V119.42Z" transform="translate(-74.17 -111.618)" fill="#fff"/>
      <path id="Path_43840" data-name="Path 43840" d="M128.595,87.713v7.67c-.523-.039-.94-.059-1.249-.059q-2.382,0-3.19.827a4.666,4.666,0,0,0-.8,3.212v1.045h5.238v6.934h-5.231v23.615H111.31V107.342h-3.98V100.4H111.4a22.259,22.259,0,0,1,.783-6.971,7.361,7.361,0,0,1,2.149-3.342,8.023,8.023,0,0,1,3.283-1.8,33.271,33.271,0,0,1,7.7-.667Q126.325,87.62,128.595,87.713Z" transform="translate(-99.194 -87.62)" fill="#fff"/>
      <path id="Path_43841" data-name="Path 43841" d="M182.31,167.512V136.955H193.4v6.134a11.77,11.77,0,0,1,3.805-5.361,9.623,9.623,0,0,1,5.81-1.668,9,9,0,0,1,1.453.115v12.138a18.8,18.8,0,0,0-2.76-.292,7.076,7.076,0,0,0-5.4,1.9q-1.794,1.9-1.813,6.288v11.3Z" transform="translate(-155.777 -124.175)" fill="#fff"/>
      <path id="Path_43842" data-name="Path 43842" d="M263.91,87.74h12.2v8.742h-12.2Zm0,43.308V100.491h12.2v30.557Z" transform="translate(-217.415 -87.711)" fill="#fff"/>
      <path id="Path_43843" data-name="Path 43843" d="M345.331,154.945H322.113a6.018,6.018,0,0,0,1.7,4.257,6.2,6.2,0,0,0,4.488,1.524,4.55,4.55,0,0,0,4.416-2.5h11.647a9.924,9.924,0,0,1-1.771,3.891,15.346,15.346,0,0,1-5.866,4.532,20.967,20.967,0,0,1-8.975,1.771q-8.31,0-13.028-4.416A14.873,14.873,0,0,1,310,152.65a16.043,16.043,0,0,1,4.765-11.99Q319.53,136,327.371,136a21.01,21.01,0,0,1,7.682,1.394,14.854,14.854,0,0,1,6.07,4.343,17.513,17.513,0,0,1,3.531,6.926A23.851,23.851,0,0,1,345.331,154.945Zm-23.12-6.215h11.007a5.324,5.324,0,0,0-1.568-3.926,5.76,5.76,0,0,0-4.075-1.445,5.151,5.151,0,0,0-3.72,1.364,6.068,6.068,0,0,0-1.654,4.007Z" transform="translate(-252.218 -124.128)" fill="#fff"/>
      <path id="Path_43844" data-name="Path 43844" d="M446.07,167.406V136.762h11.21v4.765a14.382,14.382,0,0,1,4.662-4.3,12.124,12.124,0,0,1,5.766-1.308q5.643,0,8.73,3.123t3.091,9.279v19.084H467.261V150.531a5.5,5.5,0,0,0-1.148-3.879,4.249,4.249,0,0,0-3.239-1.2,4.294,4.294,0,0,0-3.327,1.408,6.588,6.588,0,0,0-1.278,4.517v16.034Z" transform="translate(-354.947 -124.069)" fill="#fff"/>
      <path id="Path_43845" data-name="Path 43845" d="M598.875,106.9V92.24h12.2v42.2h-10.95v-4.122a11.727,11.727,0,0,1-3.926,3.8,11.267,11.267,0,0,1-5.518,1.227,13.05,13.05,0,0,1-9.979-4.183q-3.906-4.183-3.9-11.5a21.4,21.4,0,0,1,1.757-8.889,12.775,12.775,0,0,1,11.779-7.815,11.559,11.559,0,0,1,5.285,1.161A10.986,10.986,0,0,1,598.875,106.9Zm.437,12.4q0-3.634-1.408-5.3a4.615,4.615,0,0,0-3.7-1.668,4.748,4.748,0,0,0-3.818,1.742q-1.472,1.744-1.472,5.606,0,3.6,1.349,5.214a4.416,4.416,0,0,0,3.558,1.612,5.037,5.037,0,0,0,3.965-1.73q1.534-1.72,1.531-5.469Z" transform="translate(-453.646 -91.106)" fill="#fff"/>
      <path id="Path_43846" data-name="Path 43846" d="M743.495,155.587a16.81,16.81,0,0,1-1.161,4.573,11.077,11.077,0,0,1-2.034,3.1,15.433,15.433,0,0,1-3.006,2.454,16.534,16.534,0,0,1-4.024,1.813,22.663,22.663,0,0,1-6.563.886q-8.342,0-13.026-4.488A15.37,15.37,0,0,1,709,152.3a15.555,15.555,0,0,1,4.7-11.748q4.7-4.517,13-4.517A20.588,20.588,0,0,1,736,137.9a12.859,12.859,0,0,1,5.518,5,15.127,15.127,0,0,1,1.774,5.6H730.976a4.819,4.819,0,0,0-1.379-3.165,4.294,4.294,0,0,0-3.064-1.1,4.716,4.716,0,0,0-3.82,1.786q-1.472,1.789-1.472,6,0,4.559,1.423,6.3a4.783,4.783,0,0,0,3.926,1.742,4.532,4.532,0,0,0,3.165-1.089,5.216,5.216,0,0,0,1.472-3.383Z" transform="translate(-553.455 -124.16)" fill="#fff"/>
      <path id="Path_43847" data-name="Path 43847" d="M845.61,167.467V136.91H856.7v6.134a11.77,11.77,0,0,1,3.805-5.361A9.687,9.687,0,0,1,866.315,136a9,9,0,0,1,1.453.115v12.152a18.8,18.8,0,0,0-2.76-.292,7.076,7.076,0,0,0-5.4,1.9q-1.794,1.9-1.8,6.288v11.3Z" transform="translate(-656.58 -124.13)" fill="#fff"/>
      <rect id="Rectangle_582" data-name="Rectangle 582" width="12.199" height="30.557" transform="translate(209.036 12.781)" fill="#fff"/>
      <rect id="Rectangle_583" data-name="Rectangle 583" width="12.199" height="8.742" transform="translate(209.036 0.029)" fill="#fff"/>
      <path id="Path_43848" data-name="Path 43848" d="M976.62,134.451V92.25h12.2v14.66a11.812,11.812,0,0,1,3.761-2.964,10.968,10.968,0,0,1,4.807-.981,12.479,12.479,0,0,1,9.66,4.387q3.935,4.387,3.926,12.052a20.579,20.579,0,0,1-1.656,8.511,12.029,12.029,0,0,1-4.865,5.592,13.828,13.828,0,0,1-7.189,1.9,11.2,11.2,0,0,1-5.839-1.379,11.583,11.583,0,0,1-3.862-3.906v4.328Zm17.079-22.1a4.662,4.662,0,0,0-3.7,1.717,7.777,7.777,0,0,0-1.472,5.152,10.769,10.769,0,0,0,.7,4.053,5.078,5.078,0,0,0,1.9,2.483,4.721,4.721,0,0,0,2.542.756,4.591,4.591,0,0,0,3.631-1.744q1.472-1.74,1.472-5.344t-1.438-5.344A4.522,4.522,0,0,0,993.7,112.347Z" transform="translate(-755.514 -91.114)" fill="#fff"/>
      <path id="Path_43849" data-name="Path 43849" d="M665.725,87.74v16.1a25.1,25.1,0,0,1,2.863,10.913,16.509,16.509,0,0,1-1.887,8.44,16.449,16.449,0,0,1-.981,2.365v5.486h12.452V87.74Z" transform="translate(-520.762 -87.711)" fill="#fff"/>
      <path id="Path_43850" data-name="Path 43850" d="M986.379,115.789a5.388,5.388,0,0,1,2.679-4.721V87.76H976.94v43.3h12.118V120.53A5.9,5.9,0,0,1,986.379,115.789Z" transform="translate(-755.755 -87.726)" fill="#fff"/>
      <rect id="Rectangle_584" data-name="Rectangle 584" width="16.031" height="7.896" transform="translate(208.983 11.88)" fill="#fff"/>
      <rect id="Rectangle_585" data-name="Rectangle 585" width="12.199" height="3.931" transform="translate(46.495 11.897)" fill="#fff"/>
    </g>
  </g>
</svg>
