<svg xmlns="http://www.w3.org/2000/svg" width="16.399" height="27.542" viewBox="0 0 16.399 27.542">
  <g id="microphone_icon" transform="translate(-103.571)">
    <path id="Path_43905" data-name="Path 43905" d="M119.97,224.878a.807.807,0,0,0-1.614,0,6.586,6.586,0,1,1-13.171,0,.807.807,0,0,0-1.614,0,8.211,8.211,0,0,0,7.393,8.16V234.7h-.814a4.052,4.052,0,0,0-4.048,4.048.807.807,0,0,0,.807.807h9.723a.807.807,0,0,0,.807-.807,4.052,4.052,0,0,0-4.048-4.048h-.814v-1.667A8.211,8.211,0,0,0,119.97,224.878Z" transform="translate(0 -212.018)" fill="#ed702d"/>
    <path id="Path_43906" data-name="Path 43906" d="M168.171,8.1a.807.807,0,1,1,0,1.614h-2.484v1.627h2.484a.807.807,0,1,1,0,1.614h-2.484v0a4.858,4.858,0,0,0,9.716,0v0h-2.484a.807.807,0,0,1,0-1.614H175.4V9.716h-2.484a.807.807,0,1,1,0-1.614H175.4V6.475h-2.484a.807.807,0,0,1,0-1.614H175.4v0a4.858,4.858,0,1,0-9.716,0v0h2.484a.807.807,0,1,1,0,1.614h-2.484V8.1Z" transform="translate(-58.775)" fill="#ed702d"/>
  </g>
</svg>
