<svg xmlns="http://www.w3.org/2000/svg" width="23.443" height="28.033" viewBox="0 0 23.443 28.033">
  <path id="movie_title_icon" d="M25.095,13.585H6.188l.631-.449C11.513,10.425,21.9,3.91,21.9,3.91a.9.9,0,0,0,.331-1.233L21.324.452A.9.9,0,0,0,20.091.121L3.006,10.5a.908.908,0,0,0-.33,1.236l1.637,1.773.013,13.618a.9.9,0,0,0,.9.9H25.095a.9.9,0,0,0,.9-.9V14.489A.9.9,0,0,0,25.095,13.585Zm-6.549.646-2.788,2.709H12.146l2.711-2.709ZM17.368,2.59l3.2-2.057-.467,3.018-3.28,2.105ZM11.655,6.106l3.261-2.032-.582,3.059L11.076,9.165Zm-6.5,6.763L5.7,9.8,8.94,7.733,8.391,10.8ZM8.534,14.23h3.612L9.436,16.939H5.825Zm15.91,12.7H5.864V18.349H24.445v8.583Zm-2.307-9.994h-3.67l2.711-2.709h3.586Z" transform="translate(-2.556 0)" fill="#ed702d"/>
</svg>
