<svg xmlns="http://www.w3.org/2000/svg" width="16.934" height="20.25" viewBox="0 0 16.934 20.25">
  <path id="movies_icon" d="M18.837,9.813H5.18l.456-.324C9.026,7.53,16.528,2.824,16.528,2.824a.654.654,0,0,0,.239-.891L16.113.326a.652.652,0,0,0-.891-.239L2.881,7.588a.656.656,0,0,0-.238.893L3.825,9.761,3.834,19.6a.652.652,0,0,0,.653.652h14.35a.651.651,0,0,0,.653-.652V10.466A.653.653,0,0,0,18.837,9.813Zm-4.731.467-2.014,1.957H9.484l1.958-1.957Zm-.851-8.408L15.571.385l-.337,2.18-2.37,1.521ZM9.129,4.411l2.356-1.468-.42,2.21L8.711,6.621ZM4.435,9.3l.394-2.216L7.167,5.586,6.771,7.8Zm2.439.984H9.483L7.526,12.236H4.918Zm11.493,9.175H4.946v-6.2H18.367v6.2ZM16.7,12.236H14.049l1.958-1.957H18.6Z" transform="translate(-2.556 0)" fill="#fff"/>
</svg>
