<svg xmlns="http://www.w3.org/2000/svg" width="17" height="17" viewBox="0 0 17 17">
  <g id="music-icon" transform="translate(0 0)">
    <path id="Path_43898" data-name="Path 43898" d="M16.821.115a.5.5,0,0,0-.408-.108L5.39,2a.5.5,0,0,0-.409.49v9.3a2.987,2.987,0,1,0,1,2.225V6.558L16,4.746v5.546a2.987,2.987,0,1,0,1,2.225V.5A.5.5,0,0,0,16.821.115ZM2.988,16A1.992,1.992,0,1,1,4.98,14.011,1.994,1.994,0,0,1,2.988,16ZM5.976,5.546V2.906L16,1.094v2.64Zm8.035,8.963A1.992,1.992,0,1,1,16,12.517,1.994,1.994,0,0,1,14.011,14.509Z" transform="translate(0 0)" fill="#fff"/>
  </g>
</svg>
