<svg xmlns="http://www.w3.org/2000/svg" xmlns:xlink="http://www.w3.org/1999/xlink" width="852.662" height="665.851" viewBox="0 0 852.662 665.851">
  <defs>
    <linearGradient id="linear-gradient" x1="0.495" y1="1.05" x2="0.527" y2="0.183" gradientUnits="objectBoundingBox">
      <stop offset="0" stop-color="#ed702d"/>
      <stop offset="1" stop-color="#ff5900"/>
    </linearGradient>
    <linearGradient id="linear-gradient-2" x1="0.497" y1="1.082" x2="0.509" y2="0.559" gradientUnits="objectBoundingBox">
      <stop offset="0" stop-color="#f9e6d9"/>
      <stop offset="0.121" stop-color="#fbf1ea"/>
      <stop offset="0.27" stop-color="#fdf9f6"/>
      <stop offset="0.475" stop-color="#fefdfd"/>
      <stop offset="1" stop-color="#fff"/>
    </linearGradient>
    <linearGradient id="linear-gradient-3" x1="0.509" y1="1.066" x2="0.5" y2="0.689" xlink:href="#linear-gradient-2"/>
    <linearGradient id="linear-gradient-4" x1="0.506" y1="1.034" x2="0.496" y2="0.634" xlink:href="#linear-gradient-2"/>
    <linearGradient id="linear-gradient-5" x1="1" y1="0.5" x2="0" y2="0.5" gradientUnits="objectBoundingBox">
      <stop offset="0" stop-color="#8aebd6"/>
      <stop offset="0.461" stop-color="#88e9d6"/>
      <stop offset="0.628" stop-color="#84e2d9"/>
      <stop offset="0.746" stop-color="#7cd6de"/>
      <stop offset="0.842" stop-color="#71c5e5"/>
      <stop offset="0.923" stop-color="#63afee"/>
      <stop offset="0.994" stop-color="#5295f9"/>
      <stop offset="1" stop-color="#5193fa"/>
    </linearGradient>
    <linearGradient id="linear-gradient-6" x1="1" y1="0.5" x2="0" y2="0.5" gradientUnits="objectBoundingBox">
      <stop offset="0" stop-color="#31d1d6"/>
      <stop offset="0.373" stop-color="#32ced8"/>
      <stop offset="0.617" stop-color="#35c5de"/>
      <stop offset="0.824" stop-color="#3cb6ea"/>
      <stop offset="1" stop-color="#45a3fa"/>
    </linearGradient>
    <linearGradient id="linear-gradient-7" x1="1" y1="0.5" x2="0" y2="0.5" xlink:href="#linear-gradient-5"/>
    <linearGradient id="linear-gradient-8" y1="0.5" x2="1" y2="0.5" gradientUnits="objectBoundingBox">
      <stop offset="0" stop-color="#f7be86"/>
      <stop offset="0.329" stop-color="#f7bc83"/>
      <stop offset="0.545" stop-color="#f7b67a"/>
      <stop offset="0.728" stop-color="#f7ac6b"/>
      <stop offset="0.891" stop-color="#f79e56"/>
      <stop offset="1" stop-color="#f79244"/>
    </linearGradient>
    <linearGradient id="linear-gradient-9" x1="0.51" y1="0.112" x2="0.432" y2="3.099" gradientUnits="objectBoundingBox">
      <stop offset="0" stop-color="#7b6ed6"/>
      <stop offset="0.48" stop-color="#796cd4"/>
      <stop offset="0.653" stop-color="#7268d0"/>
      <stop offset="0.777" stop-color="#6660c8"/>
      <stop offset="0.877" stop-color="#5555be"/>
      <stop offset="0.961" stop-color="#3f46b0"/>
      <stop offset="1" stop-color="#333ea8"/>
    </linearGradient>
    <linearGradient id="linear-gradient-12" x1="0.507" y1="1.067" x2="0.497" y2="0.553" xlink:href="#linear-gradient-2"/>
    <linearGradient id="linear-gradient-13" x1="0.497" y1="1.036" x2="0.5" y2="0.053" gradientUnits="objectBoundingBox">
      <stop offset="0" stop-color="#ed702d"/>
      <stop offset="1" stop-color="#ff5a02"/>
    </linearGradient>
  </defs>
  <g id="Group_17" data-name="Group 17" transform="translate(-139.104 -42.855)">
    <g id="OBJECTS" transform="translate(139.104 42.855)">
      <g id="Group_1" data-name="Group 1" transform="translate(0 80.198)">
        <path id="Path_1" data-name="Path 1" d="M246.709,557.869H161.554c-22.786-23.67-28.881-61.39-15.27-91.294,12.974-28.507,40.829-47.338,57.707-73.721,36.019-56.3,18.609-140.185,67.556-185.7C296.013,184.4,331.2,177.82,364.5,175.16s67.725-2.587,98.524-15.533c37.981-15.963,66.612-50.25,105.734-63.17,43.927-14.507,96.477,3.6,122.148,42.081,16.062,24.081,22.124,54.336,41.12,76.179,30.716,35.32,84.831,38.06,123.139,64.956a114.5,114.5,0,0,1,47.4,80.5c4.089,38.547-10.546,82.33,12.567,113.45,11.27,15.174,29.544,23.728,41.688,38.214,12.1,14.433,15.508,27.585,11.7,46.033Z" transform="translate(-139.104 -91.474)" fill="#ff5900" opacity="0.73" style="mix-blend-mode: darken;isolation: isolate"/>
        <path id="Path_2" data-name="Path 2" d="M259.866,557.869H174.713c-22.787-23.67-28.882-61.39-15.271-91.294,12.974-28.507,40.831-47.338,57.708-73.721,36.018-56.3,18.609-140.185,67.555-185.7,24.466-22.751,59.648-29.332,92.953-31.992s67.725-2.587,98.526-15.533c37.981-15.963,66.612-50.25,105.732-63.17,43.929-14.507,96.478,3.6,122.148,42.081,16.064,24.081,22.124,54.336,41.12,76.179,30.717,35.32,84.831,38.06,123.141,64.956a114.5,114.5,0,0,1,47.4,80.5c4.089,38.547-10.544,82.33,12.567,113.45,11.27,15.174,29.544,23.728,41.688,38.214,12.1,14.433,15.508,27.585,11.7,46.033Z" transform="translate(-130.499 -91.474)" fill="url(#linear-gradient)" style="mix-blend-mode: darken;isolation: isolate"/>
      </g>
      <path id="Path_4" data-name="Path 4" d="M790.8,273.271H421.507c-2.944-3.87-3.308-9.858-1.207-14.456,2.729-6.037,8.419-10.139,14.092-13.546,5.673-3.424,11.71-6.566,15.961-11.644,8.154-9.742,7.675-23.718,9.477-36.289,2.117-14.919,8.369-29.689,19.65-39.7a61.467,61.467,0,0,1,15.068-9.626c15.465-7.195,34.618-9,49.074.066,13.828,8.667,20.609,25.157,32.667,36.157,2.845,2.613,6.1,4.945,9.874,5.822,10.8,2.481,19.98-7.311,28.085-14.87,11.512-10.735,26.894-18.756,42.508-16.755,18.36,2.382,32.551,18.128,39.514,35.28,2.911,7.145,5.127,15.051,10.916,20.129,14.853,13.017,39.928-1.571,57.245,7.89,6.5,3.556,10.85,10.023,14.324,16.573A119.616,119.616,0,0,1,790.8,273.271Z" transform="translate(43.927 21.941)" fill="url(#linear-gradient-2)"/>
      <g id="Group_2" data-name="Group 2" transform="translate(113.347 305.547)">
        <path id="Path_5" data-name="Path 5" d="M405.384,422.138H378.816v46.7H314.462v-46.7h-96.2V374.284l100.329-146.7h60.229V373.459h26.568Zm-90.922-48.679V345.407q0-7.922.577-21.37t.908-14.109h-1.814a174.3,174.3,0,0,1-12.706,23.762l-26.732,39.769Z" transform="translate(-200.684 -227.587)" fill="#c2561d"/>
        <path id="Path_6" data-name="Path 6" d="M394.757,422.145H368.191v46.7H303.835v-46.7h-96.2V374.291L307.96,227.6h60.231V373.468h26.567Zm-90.922-48.677V345.416q0-7.922.577-21.37t.908-14.109h-1.815A174.4,174.4,0,0,1,290.8,333.7l-26.732,39.769Z" transform="translate(-207.633 -227.581)" fill="url(#linear-gradient-3)"/>
      </g>
      <g id="Group_3" data-name="Group 3" transform="translate(527.942 315.739)">
        <path id="Path_7" data-name="Path 7" d="M661.531,419.725l-9.246-47.8-17.251,3.341-8.832,1.7-27.688-143.22-59.147,11.446L468.724,408.263l9.081,46.99,94.46-18.277,5.376,27.837h65.548l-7.741-40.043,8.832-1.7ZM545.768,392.534l-21.783,4.2,15.548-36.686,3.143-7.427a175,175,0,0,0,7.956-25.753l1.786-.331q-.2.695,1.786,14.026,1.985,13.3,3.49,21.089l5.326,27.539Z" transform="translate(-451.473 -233.749)" fill="#c2561d"/>
        <path id="Path_8" data-name="Path 8" d="M651.1,421.739l-9.246-47.784L615.772,379l-27.7-143.22-41.88,8.088-17.251,3.341L458.294,410.293l9.08,46.974,17.251-3.341,77.209-14.919,4.731,24.479h65.548l-7.1-36.7,17.251-3.341ZM546.353,358.721c.314,1.8.628,3.44.91,4.945l5.326,27.539-39.051,7.559,18.707-44.129A174.165,174.165,0,0,0,540.2,328.9l1.786-.347q-.2.72,1.786,14.026C544.716,348.9,545.576,354.289,546.353,358.721Z" transform="translate(-458.294 -232.421)" fill="url(#linear-gradient-4)"/>
      </g>
      <g id="Group_8" data-name="Group 8" transform="translate(53.633)">
        <g id="Group_4" data-name="Group 4" transform="translate(91.315 190.663)">
          <path id="Path_9" data-name="Path 9" d="M392.859,391.906l-39.291,0L328.608,209.153s-36.064-39.4-77.464-46.774l39.432-4.251,88.87,2.415Z" transform="translate(-210.777 -158.129)" fill="#df5409"/>
          <path id="Path_10" data-name="Path 10" d="M248.983,241.593s-22.326,32.675-12.415,60.73l41.535-60.73-5.394-7.245Z" transform="translate(-221.969 -108.281)" fill="#111023"/>
          <path id="Path_11" data-name="Path 11" d="M318.539,299.468l-1.338,8.437s-11.836,1.656-12.5,18.558h30.783l16.727-16.328,1.561-10.667Z" transform="translate(-175.748 -65.693)" fill="#111023"/>
          <path id="Path_12" data-name="Path 12" d="M322,207.342l-49.24-1.836,8,75.4-33.375,11.96-19.236-93.12a28.774,28.774,0,0,1,24.264-37.463l14.671-1.588h.016c41.4,7.377,77.464,46.774,77.464,46.774Z" transform="translate(-226.738 -156.448)" fill="#f67027"/>
        </g>
        <g id="Group_5" data-name="Group 5" transform="translate(0 8.382)">
          <path id="Path_13" data-name="Path 13" d="M263.768,70.368V72.56l-2.67.342a10.4,10.4,0,0,0-2.147-3.295c-3.564-3.073-6.04-5.488-8.591-4.013-1.924,1.12-1.775,6.383-1.594,8.874l-7.263.925-64.334,8.158-.03-.119c4.175-.984,7.412-8.47,7.412-17.567,0-8.978-3.148-16.375-7.233-17.537l86.45,9.752V70.368Z" transform="translate(-167.862 -47.658)" fill="#ed702d"/>
          <path id="Path_14" data-name="Path 14" d="M185.594,53.1a8.977,8.977,0,0,0-.493.82c-.925,1.788-1.356,3.832-2.5,5.473a7.414,7.414,0,0,1-3.416,2.7,19.536,19.536,0,0,1-4.578.865,10.616,10.616,0,0,0-3.029.776c.493-8.589,3.879-15.27,8.038-15.495l1.343.151C182.746,48.893,184.356,50.593,185.594,53.1Z" transform="translate(-171.501 -47.718)" fill="url(#linear-gradient-5)"/>
          <path id="Path_15" data-name="Path 15" d="M188.189,62.554c-.03.03-.045.06-.076.089-1.059,1.417-1.565,3.192-2.549,4.653a8.336,8.336,0,0,1-5,3.43c-1.864.417-3.877.194-5.577,1.044a5.471,5.471,0,0,0-2.087,1.953A33.253,33.253,0,0,1,171.53,64c0-.746.015-1.477.074-2.193a10.616,10.616,0,0,1,3.029-.776,19.537,19.537,0,0,0,4.578-.865,7.414,7.414,0,0,0,3.416-2.7c1.148-1.641,1.58-3.685,2.5-5.473a8.971,8.971,0,0,1,.493-.82A28.641,28.641,0,0,1,188.189,62.554Z" transform="translate(-171.53 -45.795)" fill="url(#linear-gradient-6)"/>
          <path id="Path_16" data-name="Path 16" d="M187.676,59.5c0,9.1-3.237,16.583-7.412,17.567a3.974,3.974,0,0,1-.94.119c-2.909,0-5.473-3.162-6.965-7.964a5.47,5.47,0,0,1,2.087-1.953c1.7-.85,3.713-.627,5.577-1.044a8.336,8.336,0,0,0,5-3.43c.984-1.46,1.49-3.235,2.549-4.653.031-.03.046-.06.076-.089C187.661,58.533,187.676,59.009,187.676,59.5Z" transform="translate(-170.987 -41.296)" fill="url(#linear-gradient-7)"/>
          <path id="Path_17" data-name="Path 17" d="M260.313,56.315h26.009a21.981,21.981,0,0,0-6.07,3.311c-.82.759-.462,2.147.552,3.922H260.313Z" transform="translate(-113.465 -42.434)" fill="#111023"/>
          <path id="Path_18" data-name="Path 18" d="M301.806,60.67v2.878H287.714A52.927,52.927,0,0,1,285,56.315h16.806Z" transform="translate(-97.32 -42.434)" fill="#111023"/>
          <path id="Path_19" data-name="Path 19" d="M280.456,64.226v1.6H229.514V55.278h50.943v8.948Z" transform="translate(-133.608 -43.112)" fill="#fd5a03"/>
          <path id="Path_20" data-name="Path 20" d="M240.337,81.73l-11.214,8.53s-13.616-14.271-13.063-21.519l7.263-.925c-.18-2.491-.329-7.754,1.594-8.874,2.55-1.475,5.027.939,8.591,4.013a10.4,10.4,0,0,1,2.147,3.295C238.279,71.872,240.337,81.73,240.337,81.73Z" transform="translate(-142.418 -41.006)" fill="url(#linear-gradient-8)"/>
          <path id="Path_21" data-name="Path 21" d="M186.741,48.656c-.749-1.641-3.172-.24-2.43,1.386A33.122,33.122,0,0,1,182.8,80.836a1.4,1.4,0,0,0,2.423,1.4A36.089,36.089,0,0,0,186.741,48.656Z" transform="translate(-164.285 -47.923)" fill="#f8f2fe"/>
        </g>
        <g id="Group_6" data-name="Group 6" transform="translate(81.829 19.771)">
          <path id="Path_22" data-name="Path 22" d="M309.956,79.8v8.649l-10.35-9.783Z" transform="translate(-169.596 -39.206)" fill="url(#linear-gradient-9)"/>
          <path id="Path_23" data-name="Path 23" d="M320.492,91.392l10.425,9.843,9.947,9.395s22.786-15.958,31.63-16.092a10.212,10.212,0,0,1,1.8.119c7.8,1.1,12.572,10.126,11.2,18.776-1.475,9.32-1.207,19.64-10.185,21.31s-48.527,11.274-48.527,11.274L283.494,87.29l5.1-3.564,11.363-7.947,2.3-1.611,5,4.712,2.893,2.729Z" transform="translate(-180.134 -42.149)" fill="#ff5900"/>
          <path id="Path_24" data-name="Path 24" d="M329.689,80.442l25.859,10.111a10.213,10.213,0,0,0-1.8-.119c-8.844.134-31.63,16.092-31.63,16.092l-9.947-9.395Z" transform="translate(-161.382 -38.045)" fill="#ff5900"/>
          <path id="Path_25" data-name="Path 25" d="M416.182,135.8,401.166,176.7l-2.013,39.817s-1.76.313-4.818.746c-14.315,2.043-57.22,6.934-84.048-3.162l10.453-49.466-4.831-39.011-58.31,6.442L221,84.787l4.876-3.713,11.214-8.53,34.584,33.778L325.8,82.67a20.108,20.108,0,0,0,3.669,2.117l-5.1,3.564,43.292,58.727S407.2,137.49,416.182,135.8Z" transform="translate(-221.003 -43.21)" fill="#f67027"/>
          <path id="Path_26" data-name="Path 26" d="M307.414,88.438l-11.363,7.948a20.109,20.109,0,0,1-3.669-2.117c-2.565-1.834-5.592-4.861-5.966-9.127C285.925,79.416,276.26,70.1,273.1,64.533c-1.014-1.775-1.373-3.162-.552-3.923a22.03,22.03,0,0,1,6.07-3.31c6.009-2.387,14.018-4.011,14.749-.3a2.917,2.917,0,0,0,.074.3,52.928,52.928,0,0,0,2.714,7.233C300.27,74.136,307.414,88.438,307.414,88.438Z" transform="translate(-187.589 -54.809)" fill="url(#linear-gradient-8)"/>
          <path id="Path_27" data-name="Path 27" d="M360.3,170.446c-66.24-14.051-76.8-88.345-76.8-88.345l43.294,58.77,48.525-11.317Z" transform="translate(-180.134 -36.96)" fill="#c2561d" opacity="0.38" style="mix-blend-mode: overlay;isolation: isolate"/>
        </g>
        <g id="Group_7" data-name="Group 7" transform="translate(192.775)">
          <path id="Path_28" data-name="Path 28" d="M339.47,62.069c1.4-.387,2.818-.1,3.384,2.132,1.313,5.116-4.429,11.26-4.429,11.26l1.417,22.711L322.32,114.862l6.859-19.626-17.284,1.133-10.349-1.133-2.893-2.729s-2.013-18.834-2.013-29.885a35.759,35.759,0,0,1,.372-6.07l.089-.538c12.111,2.044,28.917-2.683,28.917-2.683s2.355,22.936,5.577,23.338S335.817,64.2,335.817,64.2A10.992,10.992,0,0,1,339.47,62.069Z" transform="translate(-282.482 -36.004)" fill="url(#linear-gradient-8)"/>
          <path id="Path_29" data-name="Path 29" d="M345.2,52.248l-.134,16.672a10.991,10.991,0,0,0-3.654,2.132s-1,12.855-4.221,12.468-5.577-23.338-5.577-23.338S314.81,64.909,302.7,62.865V62.85c-3.8-.625-7.127-1.938-9.335-4.264C284.1,48.832,287.326,43.3,300.6,46.312S341.385,33.353,345.2,52.248Z" transform="translate(-288.08 -42.855)" fill="#111023"/>
          <path id="Path_30" data-name="Path 30" d="M323.148,78.666l-6.86,19.625-10.424-9.843V79.8Z" transform="translate(-276.45 -19.435)" fill="#f79244"/>
          <path id="Path_31" data-name="Path 31" d="M296.492,57.234a10.1,10.1,0,0,1,8.24-.488c1.712.617.422,3.136-1.27,2.526a6.951,6.951,0,0,0-5.43.332C296.424,60.411,294.866,58.05,296.492,57.234Z" transform="translate(-283.029 -34.198)" fill="#111023"/>
          <ellipse id="Ellipse_1" data-name="Ellipse 1" cx="2.033" cy="3.017" rx="2.033" ry="3.017" transform="translate(37.002 26.835) rotate(-2.993)" fill="#111023"/>
          <path id="Path_32" data-name="Path 32" d="M317.455,56.652a10.1,10.1,0,0,0-8.245.374c-1.639.792-.093,3.162,1.527,2.38a6.958,6.958,0,0,1,5.435-.237C317.855,59.8,319.157,57.294,317.455,56.652Z" transform="translate(-274.719 -34.292)" fill="#111023"/>
          <path id="Path_33" data-name="Path 33" d="M302.09,71.673c.9-4.274,3.113-8.624,4.6-12.733.311-.855,1.571-.21,1.264.635l-2.823,7.771a17.647,17.647,0,0,0-1.211,3.33c-.308,3.227,1.168,2.974,2.838,3.751.827.385.189,1.646-.635,1.264C304.075,74.735,301.47,74.606,302.09,71.673Z" transform="translate(-278.979 -32.599)" fill="#f79244"/>
          <path id="Path_34" data-name="Path 34" d="M303.379,61.839a8.927,8.927,0,0,0-4.515-1.981c-1.04-.134-1.472,1.465-.417,1.6a7.8,7.8,0,0,1,2.418.718q-1.325.429-2.646.86c-1.011.327-.587,1.927.427,1.6L303,63.218C303.535,63.046,303.9,62.255,303.379,61.839Z" transform="translate(-281.828 -31.741)" fill="#111023"/>
          <ellipse id="Ellipse_2" data-name="Ellipse 2" cx="3.68" cy="5.315" rx="3.68" ry="5.315" transform="translate(24.709 46.372)" fill="#fff"/>
        </g>
      </g>
      <g id="Group_12" data-name="Group 12" transform="translate(324.121 252.822)">
        <g id="Group_10" data-name="Group 10" transform="translate(0 116.878)">
          <path id="Path_36" data-name="Path 36" d="M518.747,314.466q-15.333-35.057-57.51-43.666-4.59-.943-8.981-1.489-37.215-4.714-61.38,17.764-27.043,25.108-39.928,88.175-7.89,38.629-4.4,66.838h61.463q-1.166-16.474,6.484-53.854,8.262-40.416,16.375-54.6,4.714-8.237,10.668-10.867a14.864,14.864,0,0,1,9.246-.893q11.81,2.431,13.6,19.2,1.786,16.8-6.236,56.071-6.029,29.45-12.091,44.939h67.384a296.4,296.4,0,0,0,8.237-31.955q2.357-11.537,3.7-22.131Q531.16,342.849,518.747,314.466Z" transform="translate(-328.257 -264.986)" fill="#c2561d"/>
          <path id="Path_37" data-name="Path 37" d="M508.337,312.347q-13.77-31.484-49.273-41.648-3.994-1.141-8.253-2.018-43.318-8.857-70.361,16.275-27.018,25.133-39.911,88.175-2.63,12.827-3.986,24.529-3,25.678.066,45.816H398c-.083-.4-.132-.794-.182-1.207q-1.935-16.052,6.252-56.153,8.262-40.416,16.391-54.582,8.113-14.191,19.914-11.76a14.469,14.469,0,0,1,7.972,4.383c3.06,3.275,4.912,8.2,5.624,14.8q1.786,16.8-6.236,56.071-6.748,32.948-13.546,48.446h67.7a299.68,299.68,0,0,0,9.378-35.445Q523.645,347.4,508.337,312.347Z" transform="translate(-335.065 -266.374)" fill="url(#linear-gradient-12)"/>
        </g>
        <g id="Group_11" data-name="Group 11" transform="translate(120.883)">
          <path id="Path_38" data-name="Path 38" d="M507.457,200.937l-.413.314-43.219,33.642-26.977,20.989L414.386,318.04l-6.236-2.249,23.14-63.96L503.4,195.71Z" transform="translate(-408.15 -195.71)" fill="#2a2a2a"/>
        </g>
        <path id="Path_39" data-name="Path 39" d="M506.151,338.245c-4.912,5.839-11.611,9.841-18.177,13.728l-.447-.777c2.6-3.325,5.342-7.228,4.565-11.38-.546-2.828-2.63-5.078-4.764-6.98-3.622-3.192-7.658-5.888-11.115-9.246s-6.384-7.575-6.947-12.355c-.728-6.285,2.663-12.223,3.986-18.409a12.455,12.455,0,0,0-.281-7.46c-2.216-5.26-8.915-6.467-14.224-8.584-4.747-1.919-9.213-5.475-10.536-10.42-1.919-7.178,3.192-14.522,2.5-21.916a14.578,14.578,0,0,0-8.9-11.743l43.219-33.642c7.327,6.351,13.646,14.77,13.728,24.38.033,6.087-2.431,11.876-4.185,17.7a15.8,15.8,0,0,0-.86,7.195c.678,3.672,3.606,6.451,6.3,9.047,5.574,5.342,11.181,11.843,11.082,19.567-.1,8.667-7.493,16.391-6.2,24.959.827,5.475,5.045,9.841,6.732,15.1C513.941,324.285,511.063,332.406,506.151,338.245Z" transform="translate(-265.253 -193.519)" fill="#bf4f13"/>
      </g>
      <g id="Group_9" data-name="Group 9" transform="translate(41.266 544.436)" style="isolation: isolate">
        <path id="Path_35" data-name="Path 35" d="M1011.627,372.439l-827.236-.2s8.44,16.819,71.972,20.571,144.5,13.783,142.057,30.673S338.6,437.04,338.6,466.86,603.224,489.8,603.224,489.8,752.714,491.327,774,471.586s-60.264-37.813-45.463-45.6,122.257,15.57,138.269-3.336-3.2-30.862,26.332-33.365S1006.645,394.9,1011.627,372.439Z" transform="translate(-202.391 -369.678)" stroke="#fe5b03" stroke-width="1" fill="url(#linear-gradient-13)" style="mix-blend-mode: multiply;isolation: isolate"/>
        <ellipse id="Ellipse_3" data-name="Ellipse 3" cx="50.178" cy="14.273" rx="50.178" ry="14.273" transform="translate(707.88 25.295)" fill="#ff5900" stroke="#fe5b03" stroke-width="1"/>
        <ellipse id="Ellipse_4" data-name="Ellipse 4" cx="43.859" cy="10.853" rx="43.859" ry="10.853" transform="translate(47.134 39.978)" fill="#ff5900" stroke="#fe5b03" stroke-width="1"/>
        <ellipse id="Ellipse_5" data-name="Ellipse 5" cx="49.814" cy="9.59" rx="49.814" ry="9.59" transform="translate(360.056 79.418)" fill="#e9fdff" stroke="#fe5b03" stroke-width="1"/>
      </g>
    </g>
  </g>
</svg>
