<svg xmlns="http://www.w3.org/2000/svg" width="12.77" height="21.447" viewBox="0 0 12.77 21.447">
  <g id="podcast__icon" transform="translate(-103.571)">
    <path id="Path_43907" data-name="Path 43907" d="M116.341,224.7a.628.628,0,1,0-1.257,0,5.128,5.128,0,0,1-10.257,0,.628.628,0,1,0-1.257,0,6.394,6.394,0,0,0,5.757,6.354v1.3h-.634a3.156,3.156,0,0,0-3.152,3.152.628.628,0,0,0,.628.628h7.571a.628.628,0,0,0,.628-.628,3.156,3.156,0,0,0-3.152-3.152h-.634v-1.3A6.394,6.394,0,0,0,116.341,224.7Zm-3.335,10.176h-6.1a1.9,1.9,0,0,1,1.788-1.267h2.524A1.9,1.9,0,0,1,113.006,234.875Z" transform="translate(0 -214.685)" fill="#fff"/>
    <path id="Path_43908" data-name="Path 43908" d="M169.47,13.876a3.787,3.787,0,0,0,3.783-3.783V3.783a3.783,3.783,0,0,0-7.566,0v6.309A3.787,3.787,0,0,0,169.47,13.876Zm0-12.619A2.529,2.529,0,0,1,172,3.783v0h-.678a.628.628,0,0,0,0,1.257H172V6.309h-.678a.628.628,0,0,0,0,1.257H172V8.833h-.678a.628.628,0,0,0,0,1.257H172v0a2.526,2.526,0,0,1-5.053,0v0h.678a.628.628,0,1,0,0-1.257h-.678V7.566h.678a.628.628,0,1,0,0-1.257h-.678V5.042h.678a.628.628,0,1,0,0-1.257h-.678v0a2.529,2.529,0,0,1,2.526-2.526Z" transform="translate(-59.514)" fill="#fff"/>
  </g>
</svg>
