<svg xmlns="http://www.w3.org/2000/svg" width="31" height="27.35" viewBox="0 0 31 27.35">
  <g id="restaurant_icon" transform="translate(0 -3.002)">
    <g id="Group_65036" data-name="Group 65036" transform="translate(0 3.002)">
      <path id="Path_43855" data-name="Path 43855" d="M33.175,40.4c.3.3,1.185-.1,1.486-.4l.5-.5c.3-.3.7-1.186.4-1.487L28.1,30.947,26.154,33Z" transform="translate(-9.64 -13.154)" fill="#ed702d"/>
      <path id="Path_43856" data-name="Path 43856" d="M9.328,12.522c.969-1.686.457-3.729-1.07-5.256-1.8-1.8-5.7-3.568-7.5-1.764s-.04,5.7,1.764,7.5a4.352,4.352,0,0,0,5.16,1.123L11.21,17.85l1.865-1.77Z" transform="translate(0 -3.769)" fill="#ed702d"/>
      <path id="Path_43857" data-name="Path 43857" d="M22.774,12.437,6.557,27.657c-.33.326.1,1.286.435,1.612l.543.537a2.235,2.235,0,0,0,1.279.546.491.491,0,0,0,.351-.116l15.447-16.1a3.828,3.828,0,0,0,1.341.369A5.066,5.066,0,0,0,29.9,12.9C33.8,9.052,34.495,8.2,33.3,6.72l-4.6,4.357a.568.568,0,0,1-.393.164.478.478,0,0,1-.341-.138l-.123-.121a.47.47,0,0,1-.139-.337.564.564,0,0,1,.17-.393L32.049,5.41l-.3-.295c-.179-.177-.345-.342-.5-.5L26.333,8.761a.553.553,0,0,1-.379.151.478.478,0,0,1-.341-.138l-.123-.121a.47.47,0,0,1-.139-.337.564.564,0,0,1,.17-.393L29.905,3.4c-1.414-1.016-2.274-.169-6.031,3.546A4.82,4.82,0,0,0,22.3,11.2,3.826,3.826,0,0,0,22.774,12.437Z" transform="translate(-2.83 -3.002)" fill="#ed702d"/>
    </g>
  </g>
</svg>
