<svg xmlns="http://www.w3.org/2000/svg" width="14" height="28.145" viewBox="0 0 14 28.145">
  <g id="restaurants-icon" transform="translate(-120.714 0)">
    <g id="Group_65084" data-name="Group 65084" transform="translate(120.714 0)">
      <g id="Group_65083" data-name="Group 65083">
        <path id="Path_43896" data-name="Path 43896" d="M124.932,0h-1.875a2.346,2.346,0,0,0-2.344,2.344v4.57a6.96,6.96,0,0,0,.73,3.093,6,6,0,0,1,.629,2.849L121.7,25.768a2.3,2.3,0,0,0,4.591.161q0-.08,0-.161l-.375-12.91a6,6,0,0,1,.629-2.847,6.959,6.959,0,0,0,.733-3.1V2.344A2.346,2.346,0,0,0,124.932,0Zm1.406,6.914a6.012,6.012,0,0,1-.631,2.674,6.937,6.937,0,0,0-.728,3.294l.375,12.908a1.349,1.349,0,0,1-.385.984,1.391,1.391,0,0,1-1.946,0,1.348,1.348,0,0,1-.387-.982l.375-12.91a6.937,6.937,0,0,0-.727-3.295,6.014,6.014,0,0,1-.632-2.675V2.344a1.406,1.406,0,0,1,.937-1.32V6.562h.937V.937h.937V6.562h.937V1.024a1.406,1.406,0,0,1,.937,1.32Z" transform="translate(-120.714)" fill="#fff"/>
      </g>
    </g>
    <g id="Group_65086" data-name="Group 65086" transform="translate(129.167 0)">
      <g id="Group_65085" data-name="Group 65085" transform="translate(0 0)">
        <path id="Path_43897" data-name="Path 43897" d="M270.137,14.052V.468A.469.469,0,0,0,269.669,0a3.912,3.912,0,0,0-3.649,2.471,14.281,14.281,0,0,0-.187,10.111l.555,1.553-.4,11.63a2.28,2.28,0,1,0,4.558.16q0-.08,0-.16ZM266.89,2.819A2.978,2.978,0,0,1,269.2.973V13.592h-2.015l-.474-1.326A13.341,13.341,0,0,1,266.89,2.819Zm2.338,23.957a1.375,1.375,0,0,1-1.931,0,1.333,1.333,0,0,1-.375-.98l.387-11.266h1.907L269.6,25.8A1.333,1.333,0,0,1,269.228,26.775Z" transform="translate(-264.998 0)" fill="#fff"/>
      </g>
    </g>
  </g>
</svg>
